<?xml version="1.0" encoding="UTF-8" standalone="no"?>
<!-- Created with Inkscape (http://www.inkscape.org/) -->

<svg
   width="59.584194mm"
   height="51.369453mm"
   viewBox="0 0 59.584194 51.369453"
   version="1.1"
   id="svg5"
   inkscape:version="1.2.2 (732a01da63, 2022-12-09)"
   sodipodi:docname="searobin_logo.svg"
   xmlns:inkscape="http://www.inkscape.org/namespaces/inkscape"
   xmlns:sodipodi="http://sodipodi.sourceforge.net/DTD/sodipodi-0.dtd"
   xmlns="http://www.w3.org/2000/svg"
   xmlns:svg="http://www.w3.org/2000/svg">
  <sodipodi:namedview
     id="namedview7"
     pagecolor="#ffffff"
     bordercolor="#000000"
     borderopacity="0.25"
     inkscape:showpageshadow="2"
     inkscape:pageopacity="0.0"
     inkscape:pagecheckerboard="0"
     inkscape:deskcolor="#d1d1d1"
     inkscape:document-units="mm"
     showgrid="false"
     inkscape:zoom="1.2863917"
     inkscape:cx="85.510502"
     inkscape:cy="117.3826"
     inkscape:window-width="1600"
     inkscape:window-height="877"
     inkscape:window-x="1912"
     inkscape:window-y="-8"
     inkscape:window-maximized="1"
     inkscape:current-layer="layer1" />
  <defs
     id="defs2">
    <inkscape:path-effect
       effect="powermask"
       id="path-effect2706"
       is_visible="true"
       lpeversion="1"
       uri="#mask-powermask-path-effect2706"
       invert="false"
       hide_mask="false"
       background="true"
       background_color="#ffffffff" />
    <rect
       x="88.498856"
       y="62.663784"
       width="148.96391"
       height="89.598221"
       id="rect435" />
    <filter
       id="mask-powermask-path-effect2688_inverse"
       inkscape:label="filtermask-powermask-path-effect2688"
       style="color-interpolation-filters:sRGB"
       height="100"
       width="100"
       x="-50"
       y="-50">
      <feColorMatrix
         id="mask-powermask-path-effect2688_primitive1"
         values="1"
         type="saturate"
         result="fbSourceGraphic" />
      <feColorMatrix
         id="mask-powermask-path-effect2688_primitive2"
         values="-1 0 0 0 1 0 -1 0 0 1 0 0 -1 0 1 0 0 0 1 0 "
         in="fbSourceGraphic" />
    </filter>
  </defs>
  <g
     inkscape:label="Layer 1"
     inkscape:groupmode="layer"
     id="layer1"
     transform="translate(-3.7068193,-2.4080298)">
    <g
       id="g2704"
       style="fill:#000000">
      <g
         aria-label="S"
         transform="matrix(1.4071793,0.84111194,0,0.71064148,0,0)"
         id="text2698"
         style="font-size:39.3072px;font-family:'Agency FB';-inkscape-font-specification:'Agency FB';stroke-width:0.407402;fill:#2c89a0;fill-opacity:1" />
      <g
         aria-label="R"
         transform="matrix(1.3841796,-0.79838062,0,0.72244961,0,0)"
         id="text2702"
         style="font-size:40.146px;font-family:'Agency FB';-inkscape-font-specification:'Agency FB';stroke-width:0.416101;fill:#2c89a0;fill-opacity:1">
        <path
           id="path1795"
           style="fill:#2c89a0;fill-opacity:1;fill-rule:evenodd"
           d="m 45.452985,108.47861 h -2.861971 l -5.704339,-16.426931 0.372448,-0.548871 h 4.86143 V 80.211746 H 35.122447 V 108.47861 H 32.397694 V 77.800634 h 10.27173 q 0.960524,0 1.568203,0.607678 0.607679,0.607679 0.607679,1.568203 v 11.643909 q 0,2.215087 -2.979586,2.215087 -0.294038,0 -0.862512,-0.0196 -0.568473,-0.0392 -0.823306,-0.0392 2.646342,7.331349 5.273083,14.701909 z m -14.788748,-4.41788 q 0,0.92508 -0.604868,0.14919 -0.585357,-0.73198 -1.54144,-2.88348 L 20.830248,84.026675 q -0.956082,-2.151493 -1.580462,-4.141807 -0.604868,-1.946406 -0.604868,-2.871491 v -7.49507 l 2.712152,6.103218 v 7.268519 l 6.595015,14.840915 V 90.688992 L 19.522952,61.865741 q -0.878034,-2.99534 -0.878034,-4.222493 V 51.65852 q 0,-0.925084 0.604868,-0.149193 0.62438,0.8198 1.580462,2.971293 l 7.687681,17.299766 q 0.956083,2.151495 1.54144,4.053994 0.604868,1.946406 0.604868,2.87149 v 6.872054 L 27.952085,79.474706 V 72.829204 L 21.35707,57.988289 v 6.230158 l 8.468156,28.911065 q 0.839011,2.869768 0.839011,4.09692 z m 15.060331,5.42597 -13.995344,0.015 L 17.733881,78.554134 V 47.591508 l 13.995343,-0.01503 13.995344,30.947598 z" />
      </g>
    </g>
    <path
       sodipodi:type="star"
       style="fill:#0066ff;stroke-width:0.264583"
       id="path111"
       inkscape:flatsided="true"
       sodipodi:sides="6"
       sodipodi:cx="7.489994"
       sodipodi:cy="5.0175691"
       sodipodi:r1="5.8559752"
       sodipodi:r2="5.0714235"
       sodipodi:arg1="-0.52359878"
       sodipodi:arg2="0"
       inkscape:rounded="0"
       inkscape:randomized="0"
       d="m 12.561417,2.0895815 0,5.8559751 -5.0714229,2.9279874 -5.0714233,-2.9279873 0,-5.8559752 5.0714232,-2.92798759 z"
       transform="matrix(0.91396689,0,0,0.91396689,5.0802094,4.8397788)" />
    <path
       sodipodi:type="star"
       style="fill:#00aa44;stroke-width:0.264583"
       id="path113"
       inkscape:flatsided="true"
       sodipodi:sides="6"
       sodipodi:cx="14.834551"
       sodipodi:cy="7.2718387"
       sodipodi:r1="8.5724468"
       sodipodi:r2="7.4239569"
       sodipodi:arg1="0.52359878"
       sodipodi:arg2="1.0471976"
       inkscape:rounded="0"
       inkscape:randomized="0"
       d="m 22.258508,11.558062 -7.423957,4.286223 -7.4239569,-4.286223 1e-7,-8.5724468 7.4239568,-4.2862234 7.423957,4.2862235 z"
       transform="translate(9.5261092,3.708638)" />
    <path
       sodipodi:type="star"
       style="fill:#ff7f2a;stroke:none;stroke-width:0.264583"
       id="path115"
       inkscape:flatsided="true"
       sodipodi:sides="6"
       sodipodi:cx="5.6720343"
       sodipodi:cy="25.23328"
       sodipodi:r1="11.337775"
       sodipodi:r2="9.8188009"
       sodipodi:arg1="0.52359878"
       sodipodi:arg2="1.0471976"
       inkscape:rounded="0"
       inkscape:randomized="0"
       d="m 15.490836,30.902168 -9.8188018,5.668887 -9.8188013,-5.668887 0,-11.337775 9.8188014,-5.668888 9.8188017,5.668888 z"
       transform="matrix(1.0296241,0,0,1.0296241,7.9764307,-0.21076546)" />
  </g>
</svg>
